<mxfile host="65bd71144e">
    <diagram id="pIsPSVw4wNhW4OB5O9Dt" name="Page-1">
        <mxGraphModel dx="1107" dy="685" grid="1" gridSize="10" guides="1" tooltips="1" connect="1" arrows="1" fold="1" page="1" pageScale="1" pageWidth="850" pageHeight="1100" math="0" shadow="0">
            <root>
                <mxCell id="0"/>
                <mxCell id="1" parent="0"/>
                <mxCell id="333" value="" style="group" parent="1" vertex="1" connectable="0">
                    <mxGeometry x="280" width="160" height="60" as="geometry"/>
                </mxCell>
                <mxCell id="320" value="s = 0, b = 0, u = 4" style="rounded=0;whiteSpace=wrap;html=1;fontFamily=Lucida Console;align=left;strokeColor=none;fillColor=none;" parent="333" vertex="1">
                    <mxGeometry width="160" height="20" as="geometry"/>
                </mxCell>
                <mxCell id="321" value="s = 1, b = 0, u = 2" style="rounded=0;whiteSpace=wrap;html=1;fontFamily=Lucida Console;align=left;strokeColor=none;fillColor=none;" parent="333" vertex="1">
                    <mxGeometry y="40" width="160" height="20" as="geometry"/>
                </mxCell>
                <mxCell id="268" value="" style="rounded=1;whiteSpace=wrap;html=1;fontFamily=Lucida Console;align=right;shadow=0;sketch=1;fillStyle=cross-hatch;fillColor=#FF0000;" parent="1" vertex="1">
                    <mxGeometry width="40" height="20" as="geometry"/>
                </mxCell>
                <mxCell id="269" value="" style="rounded=1;whiteSpace=wrap;html=1;fontFamily=Lucida Console;align=right;shadow=0;sketch=1;fillColor=#00FF00;fillStyle=cross-hatch;" parent="1" vertex="1">
                    <mxGeometry x="40" width="20" height="20" as="geometry"/>
                </mxCell>
                <mxCell id="270" value="" style="rounded=1;whiteSpace=wrap;html=1;fontFamily=Lucida Console;align=right;shadow=0;sketch=1;fillStyle=cross-hatch;fillColor=#0000FF;" parent="1" vertex="1">
                    <mxGeometry y="40" width="60" height="20" as="geometry"/>
                </mxCell>
                <mxCell id="271" value="" style="rounded=1;whiteSpace=wrap;html=1;fontFamily=Lucida Console;align=right;shadow=0;sketch=1;fillStyle=cross-hatch;fillColor=#FF8000;" parent="1" vertex="1">
                    <mxGeometry x="60" y="40" width="40" height="20" as="geometry"/>
                </mxCell>
                <mxCell id="272" value="" style="rounded=1;whiteSpace=wrap;html=1;fontFamily=Lucida Console;align=right;shadow=0;sketch=1;fillStyle=cross-hatch;fillColor=#FF0000;" parent="1" vertex="1">
                    <mxGeometry x="60" width="40" height="20" as="geometry"/>
                </mxCell>
                <mxCell id="273" value="" style="rounded=1;whiteSpace=wrap;html=1;fontFamily=Lucida Console;align=right;shadow=0;sketch=1;fillColor=#00FF00;fillStyle=cross-hatch;" parent="1" vertex="1">
                    <mxGeometry x="100" width="20" height="20" as="geometry"/>
                </mxCell>
                <mxCell id="274" value="" style="rounded=1;whiteSpace=wrap;html=1;fontFamily=Lucida Console;align=right;shadow=0;sketch=1;fillStyle=cross-hatch;fillColor=#FF0000;" parent="1" vertex="1">
                    <mxGeometry x="120" width="40" height="20" as="geometry"/>
                </mxCell>
                <mxCell id="275" value="" style="rounded=1;whiteSpace=wrap;html=1;fontFamily=Lucida Console;align=right;shadow=0;sketch=1;fillColor=#00FF00;fillStyle=cross-hatch;" parent="1" vertex="1">
                    <mxGeometry x="160" width="20" height="20" as="geometry"/>
                </mxCell>
                <mxCell id="276" value="" style="rounded=1;whiteSpace=wrap;html=1;fontFamily=Lucida Console;align=right;shadow=0;sketch=1;fillStyle=cross-hatch;fillColor=#FF0000;" parent="1" vertex="1">
                    <mxGeometry x="180" width="40" height="20" as="geometry"/>
                </mxCell>
                <mxCell id="277" value="" style="rounded=1;whiteSpace=wrap;html=1;fontFamily=Lucida Console;align=right;shadow=0;sketch=1;fillColor=#00FF00;fillStyle=cross-hatch;" parent="1" vertex="1">
                    <mxGeometry x="220" width="20" height="20" as="geometry"/>
                </mxCell>
                <mxCell id="278" value="" style="rounded=1;whiteSpace=wrap;html=1;fontFamily=Lucida Console;align=right;shadow=0;sketch=1;fillStyle=cross-hatch;fillColor=#0000FF;" parent="1" vertex="1">
                    <mxGeometry x="100" y="40" width="60" height="20" as="geometry"/>
                </mxCell>
                <mxCell id="279" value="" style="rounded=1;whiteSpace=wrap;html=1;fontFamily=Lucida Console;align=right;shadow=0;sketch=1;fillStyle=cross-hatch;fillColor=#FF8000;" parent="1" vertex="1">
                    <mxGeometry x="160" y="40" width="40" height="20" as="geometry"/>
                </mxCell>
            </root>
        </mxGraphModel>
    </diagram>
</mxfile>